<svg xmlns="http://www.w3.org/2000/svg" width="382.935" height="405.925" viewBox="0 0 382.935 405.925">
  <g id="Group_2" data-name="Group 2" transform="translate(-345 -1174)">
    <path id="Path_36" data-name="Path 36" d="M367.789,173.586S238.054,226.87,224.154,232.662s-20.85,19.692-20.85,33.592S192.879,461.532,367.789,549.228c0,0,15.875,4.392,27.919,0S560.653,470.7,560.653,265.675c0,0,0-20.85-24.325-32.434s-141.934-59.655-141.934-59.655S379.951,167.215,367.789,173.586Z" transform="translate(154.31 1015.995)" fill="#00aa63"/>
    <path id="Path_35" data-name="Path 35" d="M383.03,563.919a75.189,75.189,0,0,1-18.639-2.411l-1.2-.332-1.113-.558c-40.242-20.177-74.192-46.827-100.907-79.211a299.865,299.865,0,0,1-50.949-90.47A348.21,348.21,0,0,1,190.53,268.272c.017-.876.031-1.553.031-2.019,0-20.289,11.262-38.091,28.691-45.354,13.34-5.558,134.455-55.305,143.206-58.9,16.48-8.258,34.062-1.365,36.875-.16,6.311,2.58,118.275,48.375,142.471,59.9,24.936,11.874,31.589,33.206,31.589,43.938,0,48.588-8.415,94-25.011,134.967a312.517,312.517,0,0,1-56.162,90.511c-45.847,51.594-91.706,69.884-92.148,70.045a50.109,50.109,0,0,1-17.043,2.722Zm-10.785-26.714c3.976.891,13.129,2.228,19.1.052,7.579-2.764,45.962-22.668,81.83-63.032,49.557-55.769,74.7-125.875,74.739-208.372-.089-1.671-1.275-13.592-17.062-21.109-23.726-11.3-140.1-58.885-141.276-59.364l-.322-.136c-2.439-1.022-10.2-3.175-15.551-.371l-1.071.5c-1.3.533-129.863,53.338-143.575,59.051-9.592,4-13.009,13.9-13.009,21.83,0,.58-.015,1.423-.036,2.513-1.1,56.447,11.967,195.346,156.237,268.438Z" transform="translate(154.541 1016)" fill="#00dd80"/>
    <path id="Path_37" data-name="Path 37" d="M381.689,215.286V499.537S250.8,436.53,251.954,270.887Z" transform="translate(154.541 1016)" fill="#00dd80"/>
    <path id="Path_39" data-name="Path 39" d="M251.946,215.286V499.537s130.893-63.007,129.735-228.65Z" transform="translate(284.283 1016)" fill="#00aa63"/>
    <path id="Path_38" data-name="Path 38" d="M192.931,261.581l-41.7-53.612,24.248-18.859,19.743,25.384,66.695-70.406,22.3,21.131Z" transform="translate(334.005 1161)" fill="#fff"/>
  </g>
</svg>
