<svg xmlns="http://www.w3.org/2000/svg" xmlns:xlink="http://www.w3.org/1999/xlink" width="166" height="166" viewBox="0 0 166 166">
  <defs>
    <clipPath id="clip-instagram-logo">
      <rect width="166" height="166"/>
    </clipPath>
  </defs>
  <g id="instagram-logo" clip-path="url(#clip-instagram-logo)">
    <path id="Icon_simple-instagram" data-name="Icon simple-instagram" d="M83,0C60.452,0,57.637.1,48.783.5,39.944.913,33.926,2.3,28.635,4.357a40.646,40.646,0,0,0-14.7,9.573,40.5,40.5,0,0,0-9.573,14.7C2.3,33.926.906,39.944.5,48.783S0,60.452,0,83s.1,25.363.5,34.217c.415,8.833,1.805,14.857,3.859,20.148a40.7,40.7,0,0,0,9.573,14.7,40.587,40.587,0,0,0,14.7,9.573c5.3,2.047,11.316,3.451,20.148,3.86,8.853.415,11.668.5,34.217.5s25.363-.1,34.217-.5c8.833-.415,14.857-1.812,20.148-3.86a42.418,42.418,0,0,0,24.277-24.277c2.047-5.291,3.451-11.316,3.86-20.148.415-8.853.5-11.668.5-34.217s-.1-25.363-.5-34.217c-.415-8.833-1.812-14.864-3.86-20.148a40.736,40.736,0,0,0-9.573-14.7,40.44,40.44,0,0,0-14.7-9.573C132.074,2.3,126.049.906,117.217.5,108.363.083,105.548,0,83,0Zm0,14.94c22.154,0,24.8.111,33.546.491,8.092.38,12.485,1.722,15.4,2.87a27.314,27.314,0,0,1,15.756,15.749c1.134,2.919,2.49,7.311,2.857,15.4.394,8.756.484,11.385.484,33.546s-.1,24.8-.512,33.546c-.422,8.093-1.771,12.485-2.912,15.4a26.355,26.355,0,0,1-6.218,9.559,25.9,25.9,0,0,1-9.545,6.2c-2.9,1.134-7.366,2.49-15.459,2.857-8.812.394-11.406.484-33.608.484s-24.8-.1-33.608-.512c-8.1-.422-12.561-1.771-15.466-2.912a25.7,25.7,0,0,1-9.538-6.218,25.2,25.2,0,0,1-6.225-9.545c-1.141-2.9-2.483-7.366-2.905-15.459-.311-8.715-.422-11.406-.422-33.5s.111-24.8.422-33.622c.422-8.093,1.764-12.547,2.905-15.452a24.6,24.6,0,0,1,6.225-9.552,24.55,24.55,0,0,1,9.538-6.211c2.905-1.148,7.269-2.5,15.362-2.912,8.819-.311,11.412-.415,33.608-.415L83,14.94Zm0,25.439A42.62,42.62,0,1,0,125.62,83,42.618,42.618,0,0,0,83,40.379Zm0,70.287A27.667,27.667,0,1,1,110.667,83,27.659,27.659,0,0,1,83,110.667ZM137.268,38.7a9.96,9.96,0,1,1-9.96-9.953A9.967,9.967,0,0,1,137.268,38.7Z" transform="translate(0 0)" fill="#fff"/>
  </g>
</svg>
