<svg xmlns="http://www.w3.org/2000/svg" width="161.859" height="121.418" viewBox="0 0 161.859 121.418">
  <path id="Icon_ionic-logo-youtube" data-name="Icon ionic-logo-youtube" d="M160.808,31.312c0-14.228-10.465-25.673-23.4-25.673C119.895,4.816,102.031,4.5,83.788,4.5H78.1c-18.212,0-36.107.316-53.623,1.138-12.9,0-23.365,11.509-23.365,25.737C.318,42.631-.03,53.886,0,65.142q-.047,16.884,1.075,33.8c0,14.228,10.465,25.768,23.365,25.768,18.4.854,37.277,1.233,56.469,1.2q28.835.095,56.469-1.2c12.932,0,23.4-11.54,23.4-25.768.759-11.287,1.107-22.543,1.075-33.831Q161.946,48.227,160.808,31.312ZM65.45,96.159V34.031l45.845,31.048Z" transform="translate(0 -4.5)" fill="#fff"/>
</svg>
