<svg xmlns="http://www.w3.org/2000/svg" width="92" height="86" viewBox="0 0 92 86">
  <g id="Group_10" data-name="Group 10" transform="translate(0.411)">
    <rect id="Rectangle_91" data-name="Rectangle 91" width="92" height="86" transform="translate(-0.411)"/>
    <path id="Icon_simple-instagram" data-name="Icon simple-instagram" d="M36.74,0C26.759,0,25.513.046,21.594.22a27.092,27.092,0,0,0-8.919,1.708A17.992,17.992,0,0,0,6.166,6.166a17.927,17.927,0,0,0-4.237,6.509A27.012,27.012,0,0,0,.22,21.594C.037,25.513,0,26.759,0,36.74S.046,47.968.22,51.887a27.108,27.108,0,0,0,1.708,8.919,18.018,18.018,0,0,0,4.237,6.509,17.966,17.966,0,0,0,6.509,4.237,27.125,27.125,0,0,0,8.919,1.708c3.919.184,5.165.22,15.146.22s11.227-.046,15.146-.22a27.188,27.188,0,0,0,8.919-1.708A18.777,18.777,0,0,0,71.552,60.805a27.108,27.108,0,0,0,1.708-8.919c.184-3.919.22-5.165.22-15.146s-.046-11.227-.22-15.146a27.171,27.171,0,0,0-1.708-8.919,18.032,18.032,0,0,0-4.237-6.509,17.9,17.9,0,0,0-6.509-4.237A27.029,27.029,0,0,0,51.887.22C47.968.037,46.722,0,36.74,0Zm0,6.613c9.807,0,10.976.049,14.849.217A20.242,20.242,0,0,1,58.408,8.1a12.091,12.091,0,0,1,6.975,6.972,20.286,20.286,0,0,1,1.264,6.818c.175,3.876.214,5.04.214,14.849s-.046,10.976-.227,14.849a20.677,20.677,0,0,1-1.289,6.818,11.666,11.666,0,0,1-2.752,4.231,11.462,11.462,0,0,1-4.225,2.743,20.434,20.434,0,0,1-6.843,1.264c-3.9.175-5.049.214-14.877.214s-10.979-.046-14.877-.227a20.833,20.833,0,0,1-6.846-1.289A11.378,11.378,0,0,1,10.7,62.593a11.156,11.156,0,0,1-2.756-4.225,20.851,20.851,0,0,1-1.286-6.843c-.138-3.858-.187-5.049-.187-14.831s.049-10.979.187-14.883a20.827,20.827,0,0,1,1.286-6.84A10.891,10.891,0,0,1,10.7,10.744a10.867,10.867,0,0,1,4.222-2.749,20.335,20.335,0,0,1,6.8-1.289c3.9-.138,5.052-.184,14.877-.184l.138.092Zm0,11.261A18.866,18.866,0,1,0,55.607,36.74,18.865,18.865,0,0,0,36.74,17.874Zm0,31.113A12.247,12.247,0,1,1,48.987,36.74,12.243,12.243,0,0,1,36.74,48.987ZM60.763,17.13a4.409,4.409,0,1,1-4.409-4.406A4.412,4.412,0,0,1,60.763,17.13Z" transform="translate(9.334 6.383)" fill="#fff"/>
  </g>
</svg>
