<svg xmlns="http://www.w3.org/2000/svg" width="280" height="280" viewBox="0 0 280 280">
  <g id="Group_3" data-name="Group 3" transform="translate(-76 -1377)">
    <circle id="Ellipse_2" data-name="Ellipse 2" cx="140" cy="140" r="140" transform="translate(76 1377)" fill="#19b333"/>
    <path id="Icon_simple-whatsapp" data-name="Icon simple-whatsapp" d="M132.727,109.092c-2.283-1.138-13.4-6.576-15.474-7.327-2.071-.766-3.588-1.138-5.1,1.138-1.494,2.238-5.848,7.312-7.161,8.814-1.327,1.479-2.647,1.593-4.9.569-2.276-1.138-9.58-3.527-18.227-11.264a68.818,68.818,0,0,1-12.592-15.7c-1.32-2.276-.144-3.527.986-4.665,1.032-1.024,2.283-2.617,3.421-3.967a19.229,19.229,0,0,0,2.253-3.762,4.169,4.169,0,0,0-.19-3.975c-.569-1.138-5.1-12.288-6.994-16.733-1.82-4.43-3.694-3.868-5.1-3.868-1.3-.114-2.814-.114-4.331-.114a8.551,8.551,0,0,0-6.045,2.723c-2.071,2.276-7.927,7.737-7.927,18.774s8.116,21.732,9.246,23.325c1.13,1.479,15.967,24.235,38.685,34.02,5.416,2.276,9.633,3.641,12.925,4.771a31.382,31.382,0,0,0,14.26.918c4.354-.69,13.4-5.469,15.292-10.817,1.934-5.348,1.934-9.785,1.365-10.809s-2.048-1.593-4.324-2.617M91.486,164.98h-.121a75.88,75.88,0,0,1-38.344-10.468l-2.731-1.623-28.445,7.4,7.623-27.648-1.813-2.844a74.856,74.856,0,0,1-11.5-39.9c0-41.3,33.792-74.981,75.413-74.981a75.35,75.35,0,0,1,75.322,75.094c-.03,41.294-33.83,74.981-75.36,74.981M155.65,26.162A92.1,92.1,0,0,0,91.365,0C41.438,0,.789,40.46.766,90.212a89.779,89.779,0,0,0,12.1,45.095L0,182.047l48.053-12.531a91.5,91.5,0,0,0,43.312,10.976h.046c49.949,0,90.614-40.475,90.637-90.235a89.463,89.463,0,0,0-26.511-63.8" transform="translate(124.977 1425.878)" fill="#fff"/>
  </g>
</svg>
