<svg xmlns="http://www.w3.org/2000/svg" xmlns:xlink="http://www.w3.org/1999/xlink" width="166" height="166" viewBox="0 0 166 166">
  <defs>
    <clipPath id="clip-youtube-logo">
      <rect width="166" height="166"/>
    </clipPath>
  </defs>
  <g id="youtube-logo" clip-path="url(#clip-youtube-logo)">
    <path id="Icon_ionic-logo-youtube" data-name="Icon ionic-logo-youtube" d="M164.922,32c0-14.592-10.733-26.33-24-26.33-17.964-.843-36.285-1.167-55-1.167H80.095c-18.678,0-37.031.324-55,1.167-13.23,0-23.963,11.8-23.963,26.4C.326,43.606-.031,55.15,0,66.694q-.049,17.316,1.1,34.664c0,14.592,10.733,26.427,23.963,26.427,18.872.876,38.231,1.265,57.913,1.232q29.573.1,57.913-1.232c13.262,0,24-11.836,24-26.427.778-11.576,1.135-23.12,1.1-34.7Q166.089,49.346,164.922,32ZM67.124,98.5V34.786l47.018,31.843Z" transform="translate(0.001 16.238)" fill="#fff"/>
  </g>
</svg>
